<svg width="580" height="400" xmlns="http://www.w3.org/2000/svg">
 <!-- Created with Method Draw - http://github.com/duopixel/Method-Draw/ -->
 <g>
  <title>background</title>
  <rect fill="#fff" id="canvas_background" height="402" width="582" y="-1" x="-1"/>
 </g>
 <g>
  <title>Layer 1</title>
  <rect id="svg_1" height="57" width="143" y="45.4375" x="74" fill-opacity="null" stroke-opacity="null" stroke-width="1.5" stroke="#000" fill="none"/>
  <line stroke-linecap="round" stroke-linejoin="null" id="svg_2" y2="323.4375" x2="256" y1="61.4375" x1="327" fill-opacity="null" stroke-opacity="null" stroke-width="1.5" stroke="#000" fill="none"/>
  <path d="m180,304.4375c-4,0 -7,0 -14,0c-5,0 -16.563049,0.464844 -39,-9c-8.241028,-3.47641 -19.092003,-10.736938 -28,-14c-10.113182,-3.704529 -27.03875,-13.437958 -31,-22c-9.693954,-20.952972 -10.217342,-31.9785 -11,-41c-1.385578,-15.971222 -3.359756,-26.256088 -1,-37c3.071507,-13.984482 13.538445,-20.223206 36,-28c6.879448,-2.381851 12.823746,-3.486252 15,-4c2.919746,-0.689255 17,0 30,0c16,0 19.647339,1.040329 23,4c8.109009,7.158493 8.408157,18.379837 15,28c12.889587,18.811127 25.137314,23.745712 35,43c3.895233,7.604416 4.993988,14.83551 6,24c0.109116,0.994034 0,3 0,4c0,1 0.707108,3.292892 0,4c-0.707108,0.707092 -4.819382,4.1922 -8,7c-8.547653,7.545715 -12.771957,13.119537 -16,19c-2.805908,5.11145 -4.292892,5.292908 -5,6c-0.707108,0.707092 -0.692551,1.186005 -2,3c-0.826904,1.147278 -3,3 -3,5c0,1 -1,1 -1,2c0,4 0.459503,8.053497 0,10c-0.513748,2.176239 -1.292892,3.707092 -2,3c-0.707108,-0.707092 0,-6 0,-7c0,-1 0,-3 0,-4c0,-1 0,0 0,1c0,2 0,4 0,5l0,2" id="svg_3" fill-opacity="null" stroke-opacity="null" stroke-width="1.5" stroke="#000" fill="none"/>
 </g>
</svg>